# xmcd
#
# Track frame offsets:
#	150
#	11387
#	28038
#	42070
#	56516
#	71533
#	83222
#	98561
#	112247
#	129586
#	144880
#	158601
#	173452
#	190151
#	208101
#	223389
#	238226
#	252322
#	266591
#	283887
#	297814
#	313023
#	324994
#	336858
#
# Disc length: 4731 seconds
#
# Revision: 1
# Processed by: cddbd v1.5.2PL0 Copyright (c) Steve Scherf et al.
# Submitted via: audiograbber 1.83.01
#
DISCID=60127918
DTITLE=Various Artist - Country-MIX 03
DYEAR=2003
DGENRE=Country
TTITLE0=Alan Jackson - Tall, Tall Trees
TTITLE1=Shania Twain - If It Don't Takes Two
TTITLE2=Katja Kaye - Last Thing On My Mind
TTITLE3=Mindy McCready - Tumble And Roll
TTITLE4=Alan Jackson - Home
TTITLE5=Johnny Cash - Mean Eyed Cat
TTITLE6=Deana Carter - We Danced Away
TTITLE7=Martina McBride - Don't Want To See You Again
TTITLE8=Chely Wright - Emmy Jean's Guitar
TTITLE9=Tim McGraw - Where The Green Grass Grows
TTITLE10=LeeAnn Womack - Buckaroo
TTITLE11=Sherrie Austin - I Want To Fall In Love
TTITLE12=Tim McGraw - You Turn Me On
TTITLE13=Katja Kaye - Dr. Honky Tonk
TTITLE14=JoDee Messina - Bye Bye
TTITLE15=Martina McBride - Two More Bottles Of Wine
TTITLE16=Alan Jackson - Pop A Top
TTITLE17=Reba McEntire - Little Rock
TTITLE18=Alan Jackson - Livin' On Love
TTITLE19=Chely Wright - Your Woman Misses Her Man
TTITLE20=LeeAnn Womack - A Man With 18 Wheels
TTITLE21=Johnny Cash - Ring Of Fire
TTITLE22=Sherrie Austin - Put Your Heart Into It
TTITLE23=Alan Jackson - Where I Come From
EXTD=
EXTT0=
EXTT1=
EXTT2=
EXTT3=
EXTT4=
EXTT5=
EXTT6=
EXTT7=
EXTT8=
EXTT9=
EXTT10=
EXTT11=
EXTT12=
EXTT13=
EXTT14=
EXTT15=
EXTT16=
EXTT17=
EXTT18=
EXTT19=
EXTT20=
EXTT21=
EXTT22=
EXTT23=
PLAYORDER=
